<svg
  id="wave"
  style="transform: rotate(180deg); transition: 0.3s"
  viewBox="0 0 3000 500"
  version="1.1"
  xmlns="http://www.w3.org/2000/svg"
>
  <defs>
    <linearGradient id="sw-gradient-0" x1="0" x2="0" y1="1" y2="0">
      <stop stop-color="rgba(92, 106, 196, 1)" offset="0%"></stop>
      <stop stop-color="rgba(159, 171, 248, 1)" offset="100%"></stop>
    </linearGradient>
  </defs>
  <path
    style="transform: translate(0, 0px); opacity: 1"
    fill="url(#sw-gradient-0)"
    d="M0,0L40,0C80,0,160,0,240,40.8C320,82,400,163,480,228.7C560,294,640,343,720,318.5C800,294,880,196,960,155.2C1040,114,1120,131,1200,171.5C1280,212,1360,278,1440,253.2C1520,229,1600,114,1680,81.7C1760,49,1840,98,1920,122.5C2000,147,2080,147,2160,147C2240,147,2320,147,2400,187.8C2480,229,2560,310,2640,294C2720,278,2800,163,2880,98C2960,33,3040,16,3120,32.7C3200,49,3280,98,3360,155.2C3440,212,3520,278,3600,318.5C3680,359,3760,376,3840,318.5C3920,261,4000,131,4080,106.2C4160,82,4240,163,4320,163.3C4400,163,4480,82,4560,114.3C4640,147,4720,294,4800,359.3C4880,425,4960,408,5040,392C5120,376,5200,359,5280,326.7C5360,294,5440,245,5520,196C5600,147,5680,98,5720,73.5L5760,49L5760,490L5720,490C5680,490,5600,490,5520,490C5440,490,5360,490,5280,490C5200,490,5120,490,5040,490C4960,490,4880,490,4800,490C4720,490,4640,490,4560,490C4480,490,4400,490,4320,490C4240,490,4160,490,4080,490C4000,490,3920,490,3840,490C3760,490,3680,490,3600,490C3520,490,3440,490,3360,490C3280,490,3200,490,3120,490C3040,490,2960,490,2880,490C2800,490,2720,490,2640,490C2560,490,2480,490,2400,490C2320,490,2240,490,2160,490C2080,490,2000,490,1920,490C1840,490,1760,490,1680,490C1600,490,1520,490,1440,490C1360,490,1280,490,1200,490C1120,490,1040,490,960,490C880,490,800,490,720,490C640,490,560,490,480,490C400,490,320,490,240,490C160,490,80,490,40,490L0,490Z"
  ></path>
  <defs>
    <linearGradient id="sw-gradient-1" x1="0" x2="0" y1="1" y2="0">
      <stop stop-color="rgba(92, 106, 196, 1)" offset="0%"></stop>
      <stop stop-color="rgba(159, 171, 248, 1)" offset="100%"></stop>
    </linearGradient>
  </defs>
  <path
    style="transform: translate(0, 50px); opacity: 0.9"
    fill="url(#sw-gradient-1)"
    d="M0,441L40,441C80,441,160,441,240,383.8C320,327,400,212,480,171.5C560,131,640,163,720,196C800,229,880,261,960,245C1040,229,1120,163,1200,171.5C1280,180,1360,261,1440,277.7C1520,294,1600,245,1680,196C1760,147,1840,98,1920,114.3C2000,131,2080,212,2160,277.7C2240,343,2320,392,2400,359.3C2480,327,2560,212,2640,196C2720,180,2800,261,2880,253.2C2960,245,3040,147,3120,138.8C3200,131,3280,212,3360,204.2C3440,196,3520,98,3600,98C3680,98,3760,196,3840,253.2C3920,310,4000,327,4080,302.2C4160,278,4240,212,4320,196C4400,180,4480,212,4560,245C4640,278,4720,310,4800,318.5C4880,327,4960,310,5040,294C5120,278,5200,261,5280,245C5360,229,5440,212,5520,228.7C5600,245,5680,294,5720,318.5L5760,343L5760,490L5720,490C5680,490,5600,490,5520,490C5440,490,5360,490,5280,490C5200,490,5120,490,5040,490C4960,490,4880,490,4800,490C4720,490,4640,490,4560,490C4480,490,4400,490,4320,490C4240,490,4160,490,4080,490C4000,490,3920,490,3840,490C3760,490,3680,490,3600,490C3520,490,3440,490,3360,490C3280,490,3200,490,3120,490C3040,490,2960,490,2880,490C2800,490,2720,490,2640,490C2560,490,2480,490,2400,490C2320,490,2240,490,2160,490C2080,490,2000,490,1920,490C1840,490,1760,490,1680,490C1600,490,1520,490,1440,490C1360,490,1280,490,1200,490C1120,490,1040,490,960,490C880,490,800,490,720,490C640,490,560,490,480,490C400,490,320,490,240,490C160,490,80,490,40,490L0,490Z"
  ></path>
</svg>
